<svg width="48" height="48" viewBox="0 0 48 48" fill="none" xmlns="http://www.w3.org/2000/svg">
<g id="icon / jam-icons / outline &#38; logos / calendar">
<path id="Vector" d="M40 20V16C40 15.4696 39.7893 14.9609 39.4142 14.5858C39.0391 14.2107 38.5304 14 38 14H36V16C36 16.5304 35.7893 17.0391 35.4142 17.4142C35.0391 17.7893 34.5304 18 34 18C33.4696 18 32.9609 17.7893 32.5858 17.4142C32.2107 17.0391 32 16.5304 32 16V14H16V16C16 16.5304 15.7893 17.0391 15.4142 17.4142C15.0391 17.7893 14.5304 18 14 18C13.4696 18 12.9609 17.7893 12.5858 17.4142C12.2107 17.0391 12 16.5304 12 16V14H10C9.46957 14 8.96086 14.2107 8.58579 14.5858C8.21071 14.9609 8 15.4696 8 16V20H40ZM40 24H8V36C8 36.5304 8.21071 37.0391 8.58579 37.4142C8.96086 37.7893 9.46957 38 10 38H38C38.5304 38 39.0391 37.7893 39.4142 37.4142C39.7893 37.0391 40 36.5304 40 36V24ZM36 10H38C39.5913 10 41.1174 10.6321 42.2426 11.7574C43.3679 12.8826 44 14.4087 44 16V36C44 37.5913 43.3679 39.1174 42.2426 40.2426C41.1174 41.3679 39.5913 42 38 42H10C8.4087 42 6.88258 41.3679 5.75736 40.2426C4.63214 39.1174 4 37.5913 4 36V16C4 14.4087 4.63214 12.8826 5.75736 11.7574C6.88258 10.6321 8.4087 10 10 10H12V8C12 7.46957 12.2107 6.96086 12.5858 6.58579C12.9609 6.21071 13.4696 6 14 6C14.5304 6 15.0391 6.21071 15.4142 6.58579C15.7893 6.96086 16 7.46957 16 8V10H32V8C32 7.46957 32.2107 6.96086 32.5858 6.58579C32.9609 6.21071 33.4696 6 34 6C34.5304 6 35.0391 6.21071 35.4142 6.58579C35.7893 6.96086 36 7.46957 36 8V10Z" fill="#C1C7CD"/>
</g>
</svg>
