<svg width="48" height="48" viewBox="0 0 48 48" fill="none" xmlns="http://www.w3.org/2000/svg">
<g id="icon / jam-icons / outline &#38; logos / car">
<path id="Vector" d="M32 38H16V41C16 41.7957 15.6839 42.5587 15.1213 43.1213C14.5587 43.6839 13.7956 44 13 44H11C10.2044 44 9.44129 43.6839 8.87868 43.1213C8.31607 42.5587 8 41.7957 8 41V37.66C6.82985 37.246 5.81684 36.4794 5.10048 35.4657C4.38412 34.4521 3.99964 33.2412 4 32V26C4 24.76 4.376 23.608 5.02 22.652L7.192 9.052C7.41755 7.64237 8.13832 6.35935 9.22484 5.43339C10.3114 4.50742 11.6924 3.9992 13.12 4H34.88C36.3065 4.00118 37.6859 4.51055 38.7708 5.43674C39.8557 6.36294 40.5751 7.64536 40.8 9.054L42.966 22.634C43.618 23.594 43.998 24.754 43.998 26V32C43.9984 33.2412 43.6139 34.4521 42.8975 35.4657C42.1812 36.4794 41.1682 37.246 39.998 37.66V41C39.998 41.7957 39.6819 42.5587 39.1193 43.1213C38.5567 43.6839 37.7937 44 36.998 44H34.998C34.2024 44 33.4393 43.6839 32.8767 43.1213C32.3141 42.5587 31.998 41.7957 31.998 41V38H32ZM10 34H38C38.5304 34 39.0391 33.7893 39.4142 33.4142C39.7893 33.0391 40 32.5304 40 32V26C40 25.4696 39.7893 24.9609 39.4142 24.5858C39.0391 24.2107 38.5304 24 38 24H10C9.46957 24 8.96086 24.2107 8.58579 24.5858C8.21071 24.9609 8 25.4696 8 26V32C8 32.5304 8.21071 33.0391 8.58579 33.4142C8.96086 33.7893 9.46957 34 10 34ZM38.5 20.02L36.852 9.684C36.7769 9.2148 36.5373 8.78766 36.1759 8.47909C35.8146 8.17052 35.3552 8.00068 34.88 8H13.118C12.6421 7.99973 12.1818 8.16914 11.8196 8.4778C11.4574 8.78645 11.2172 9.21412 11.142 9.684L9.492 20.022C9.66095 20.0076 9.83043 20.0002 10 20H38C38.168 20 38.336 20.006 38.5 20.02ZM35 28C34.7348 28 34.4804 28.1054 34.2929 28.2929C34.1054 28.4804 34 28.7348 34 29C34 29.2652 34.1054 29.5196 34.2929 29.7071C34.4804 29.8946 34.7348 30 35 30C35.2652 30 35.5196 29.8946 35.7071 29.7071C35.8946 29.5196 36 29.2652 36 29C36 28.7348 35.8946 28.4804 35.7071 28.2929C35.5196 28.1054 35.2652 28 35 28ZM35 32C34.606 32 34.2159 31.9224 33.8519 31.7716C33.488 31.6209 33.1573 31.3999 32.8787 31.1213C32.6001 30.8427 32.3791 30.512 32.2284 30.1481C32.0776 29.7841 32 29.394 32 29C32 28.606 32.0776 28.2159 32.2284 27.8519C32.3791 27.488 32.6001 27.1573 32.8787 26.8787C33.1573 26.6001 33.488 26.3791 33.8519 26.2284C34.2159 26.0776 34.606 26 35 26C35.7956 26 36.5587 26.3161 37.1213 26.8787C37.6839 27.4413 38 28.2044 38 29C38 29.7956 37.6839 30.5587 37.1213 31.1213C36.5587 31.6839 35.7956 32 35 32ZM13 28C12.7348 28 12.4804 28.1054 12.2929 28.2929C12.1054 28.4804 12 28.7348 12 29C12 29.2652 12.1054 29.5196 12.2929 29.7071C12.4804 29.8946 12.7348 30 13 30C13.2652 30 13.5196 29.8946 13.7071 29.7071C13.8946 29.5196 14 29.2652 14 29C14 28.7348 13.8946 28.4804 13.7071 28.2929C13.5196 28.1054 13.2652 28 13 28ZM13 32C12.606 32 12.2159 31.9224 11.852 31.7716C11.488 31.6209 11.1573 31.3999 10.8787 31.1213C10.6001 30.8427 10.3791 30.512 10.2284 30.1481C10.0776 29.7841 10 29.394 10 29C10 28.606 10.0776 28.2159 10.2284 27.8519C10.3791 27.488 10.6001 27.1573 10.8787 26.8787C11.1573 26.6001 11.488 26.3791 11.852 26.2284C12.2159 26.0776 12.606 26 13 26C13.7956 26 14.5587 26.3161 15.1213 26.8787C15.6839 27.4413 16 28.2044 16 29C16 29.7956 15.6839 30.5587 15.1213 31.1213C14.5587 31.6839 13.7956 32 13 32ZM14.408 10.188C14.9384 10.188 15.4471 10.3987 15.8222 10.7738C16.1973 11.1489 16.408 11.6576 16.408 12.188V16.188C16.408 16.7184 16.1973 17.2271 15.8222 17.6022C15.4471 17.9773 14.9384 18.188 14.408 18.188C13.8776 18.188 13.3689 17.9773 12.9938 17.6022C12.6187 17.2271 12.408 16.7184 12.408 16.188V12.188C12.408 11.6576 12.6187 11.1489 12.9938 10.7738C13.3689 10.3987 13.8776 10.188 14.408 10.188Z" fill="#C1C7CD"/>
</g>
</svg>
