<svg width="48" height="48" viewBox="0 0 48 48" fill="none" xmlns="http://www.w3.org/2000/svg">
<g id="icon / jam-icons / outline &#38; logos / luggage">
<path id="Vector" d="M34 20V36H30V20H18V36H14V20C12.4087 20 10.8826 20.6321 9.75736 21.7574C8.63214 22.8826 8 24.4087 8 26V30C8 31.5913 8.63214 33.1174 9.75736 34.2426C10.8826 35.3679 12.4087 36 14 36H34C35.5913 36 37.1174 35.3679 38.2426 34.2426C39.3679 33.1174 40 31.5913 40 30V26C40 24.4087 39.3679 22.8826 38.2426 21.7574C37.1174 20.6321 35.5913 20 34 20ZM18.34 16H29.66C29.244 14.8317 28.4767 13.8207 27.4634 13.1058C26.45 12.3908 25.2402 12.0071 24 12.0071C22.7598 12.0071 21.55 12.3908 20.5366 13.1058C19.5233 13.8207 18.756 14.8317 18.34 16ZM14.2 16C14.663 13.7427 15.891 11.7145 17.6765 10.258C19.4621 8.80144 21.6957 8.00598 24 8.00598C26.3043 8.00598 28.5379 8.80144 30.3235 10.258C32.109 11.7145 33.337 13.7427 33.8 16H34C36.6522 16 39.1957 17.0536 41.0711 18.9289C42.9464 20.8043 44 23.3478 44 26V30C44 32.6522 42.9464 35.1957 41.0711 37.0711C39.1957 38.9464 36.6522 40 34 40H14C11.3478 40 8.8043 38.9464 6.92893 37.0711C5.05357 35.1957 4 32.6522 4 30V26C4 23.3478 5.05357 20.8043 6.92893 18.9289C8.8043 17.0536 11.3478 16 14 16H14.2Z" fill="#C1C7CD"/>
</g>
</svg>
